HIERARCHY
ROOT Hips
{
	OFFSET 0.000000 0.000000 0.000000 
	CHANNELS 6 Xposition Yposition Zposition Zrotation Yrotation Xrotation
	JOINT LeftUpLeg
	{
		OFFSET 1.363060 -1.794630 0.839290 
		CHANNELS 3 Zrotation Yrotation Xrotation
		JOINT LeftLeg
		{
			OFFSET 2.448110 -6.726130 0.000000 
			CHANNELS 3 Zrotation Yrotation Xrotation
			JOINT LeftFoot
			{
				OFFSET 2.562200 -7.039590 0.000000 
				CHANNELS 3 Zrotation Yrotation Xrotation
				JOINT LeftToeBase
				{
					OFFSET 0.157640 -0.433110 2.322550 
					CHANNELS 3 Zrotation Yrotation Xrotation
					End Site
					{
						OFFSET 0.000000 0.000000 0.000000 
					}
				}
			}
		}
	}
	JOINT RightUpLeg
	{
		OFFSET -1.305520 -1.794630 0.839290 
		CHANNELS 3 Zrotation Yrotation Xrotation
		JOINT RightLeg
		{
			OFFSET -2.542530 -6.985550 0.000000 
			CHANNELS 3 Zrotation Yrotation Xrotation
			JOINT RightFoot
			{
				OFFSET -2.568260 -7.056230 0.000000 
				CHANNELS 3 Zrotation Yrotation Xrotation
				JOINT RightToeBase
				{
					OFFSET -0.164730 -0.452590 2.363150 
					CHANNELS 3 Zrotation Yrotation Xrotation
					End Site
					{
						OFFSET 0.000000 0.000000 0.000000 
					}
				}
			}
		}
	}
	JOINT Spine
	{
		OFFSET 0.028270 2.035590 -0.193380 
		CHANNELS 3 Zrotation Yrotation Xrotation
		JOINT Spine1
		{
			OFFSET 0.056720 2.048850 -0.042750 
			CHANNELS 3 Zrotation Yrotation Xrotation
			JOINT Neck1
			{
				OFFSET -0.054170 1.746240 0.172020 
				CHANNELS 3 Zrotation Yrotation Xrotation
				JOINT Head
				{
					OFFSET 0.104070 1.761360 -0.123970 
					CHANNELS 3 Zrotation Yrotation Xrotation
					End Site
					{
						OFFSET 0.000000 0.000000 0.000000 
					}
				}
			}
			JOINT LeftArm
			{
				OFFSET 3.362410 1.200890 -0.311210 
				CHANNELS 3 Zrotation Yrotation Xrotation
				JOINT LeftForeArm
				{
					OFFSET 4.983000 -0.000000 -0.000000 
					CHANNELS 3 Zrotation Yrotation Xrotation
					JOINT LeftHand
					{
						OFFSET 3.483560 -0.000000 -0.000000 
						CHANNELS 3 Zrotation Yrotation Xrotation
						JOINT LeftHandIndex1
						{
							OFFSET 0.715260 -0.000000 -0.000000 
							CHANNELS 3 Zrotation Yrotation Xrotation
							End Site
							{
								OFFSET 0.000000 0.000000 0.000000 
							}
						}
					}
				}
			}
			JOINT RightArm
			{
				OFFSET -3.136600 1.374050 -0.404650 
				CHANNELS 3 Zrotation Yrotation Xrotation
				JOINT RightForeArm
				{
					OFFSET -5.241900 -0.000000 -0.000000 
					CHANNELS 3 Zrotation Yrotation Xrotation
					JOINT RightHand
					{
						OFFSET -3.444170 -0.000000 -0.000000 
						CHANNELS 3 Zrotation Yrotation Xrotation
						JOINT RightHandIndex1
						{
							OFFSET -0.622530 -0.000000 -0.000000 
							CHANNELS 3 Zrotation Yrotation Xrotation
							End Site
							{
								OFFSET 0.000000 0.000000 0.000000 
							}
						}
					}
				}
			}
		}
	}
}
MOTION
Frames: 13
Frame Time: 0.041667
-4.483328 17.459344 -2.001386 -16.069341 77.689554 -10.378349 -16.828076 -21.307770 -4.086937 -1.578631 7.793582 21.038013 -1.279054 15.497033 -17.019684 2.368100 -9.594000 -27.671700 29.304500 0.550695 3.633169 2.793137 -0.070624 3.768927 0.430394 -17.056314 -15.895789 -1.448700 -7.608400 21.530700 1.631246 0.071174 -3.841501 -0.519544 -0.262966 -1.710921 5.371397 -2.686886 12.903185 0.035100 -0.710900 12.630000 -89.634195 10.173227 22.200833 13.592195 -20.215125 -3.277265 -0.318518 -1.374562 -27.565246 -7.125000 0.000000 0.000000 85.234405 -6.834441 14.965725 -10.401853 19.205716 -1.816992 0.351411 -0.372438 10.407934 7.125000 0.000000 0.000000 
-4.479591 17.459049 -2.002959 -16.270451 77.697975 -10.649391 -16.780291 -20.991784 -4.160255 -1.553427 7.805981 21.097931 -1.224096 15.124214 -16.908855 2.330000 -9.522100 -27.442500 29.317964 0.493385 3.709223 2.794185 -0.066742 3.772882 0.423641 -17.034656 -16.001664 -1.530100 -7.809900 22.138100 1.638226 0.067263 -3.846035 -0.459022 -0.265661 -1.765260 5.400123 -2.739196 13.025792 0.067500 -0.730500 12.722100 -89.687908 10.105170 22.792956 14.106995 -20.910595 -3.467011 -0.288701 -1.383835 -28.582534 -7.125000 0.000000 0.000000 85.286391 -6.681900 16.168827 -10.861442 19.903841 -1.966057 0.356018 -0.376899 9.463472 7.125000 0.000000 0.000000 
-4.474773 17.458852 -2.005811 -16.353642 77.692606 -10.775328 -16.796598 -20.862454 -4.127684 -1.550308 7.793581 21.081066 -1.219980 15.062493 -16.793278 2.364100 -9.586500 -27.648000 29.324587 0.469856 3.762804 2.795748 -0.064288 3.775294 0.427457 -17.067247 -16.004318 -1.528400 -7.805600 22.125200 1.632961 0.082884 -3.833215 -0.448575 -0.257590 -1.745760 5.350866 -2.776872 13.051711 0.035500 -0.751300 12.729900 -89.729459 9.949503 23.445820 14.678956 -21.679952 -3.685084 -0.257140 -1.393757 -29.734856 -7.125000 0.000000 0.000000 85.378330 -6.513694 17.429986 -11.392590 20.704423 -2.147759 0.360538 -0.373505 8.534781 7.125000 0.000000 0.000000 
-4.468381 17.460032 -2.009056 -16.244819 77.691500 -10.718236 -16.893657 -20.970741 -3.984228 -1.556871 7.788734 21.078283 -1.238323 15.208658 -16.860852 2.380000 -9.616400 -27.743400 29.298893 0.449297 3.821919 2.797248 -0.060549 3.779220 0.446615 -17.177281 -15.873489 -1.407300 -7.503500 21.215800 1.611408 0.126103 -3.821166 -0.473965 -0.235472 -1.722533 5.319335 -2.820130 13.062135 0.017000 -0.774800 12.720200 -89.752802 9.817233 24.174101 15.350786 -22.574435 -3.953366 -0.220260 -1.406563 -30.835998 -7.125000 0.000000 0.000000 85.504189 -6.376856 18.659230 -11.981290 21.583796 -2.357777 0.365027 -0.369757 7.622173 7.125000 0.000000 0.000000 
-4.461203 17.461409 -2.011612 -16.367941 77.705281 -10.874517 -16.916931 -21.058216 -3.884630 -1.561563 7.775408 21.053964 -1.234108 15.209689 -16.937409 2.290700 -9.446900 -27.203600 29.301950 0.408098 3.859996 2.797757 -0.058449 3.782771 0.454868 -17.224516 -15.809742 -1.336400 -7.319900 20.666700 1.596098 0.125069 -3.847666 -0.505615 -0.235188 -1.811859 5.322638 -2.841748 13.161649 0.026500 -0.778300 12.763900 -89.824937 9.760373 24.786355 16.105109 -23.555417 -4.262169 -0.177985 -1.408516 -31.783889 -7.125000 0.000000 0.000000 85.632185 -6.329641 19.950210 -12.633417 22.538169 -2.598808 0.369003 -0.368578 6.786954 7.125000 0.000000 0.000000 
-4.455500 17.462392 -2.014169 -16.551395 77.743924 -11.067130 -16.910630 -21.107996 -3.837203 -1.566802 7.756639 21.007928 -1.225270 15.158843 -16.946676 2.192700 -9.256300 -26.600500 29.307346 0.349189 3.873897 2.797334 -0.058173 3.785450 0.454651 -17.225627 -15.818167 -1.339100 -7.326900 20.687400 1.613023 0.093375 -3.833723 -0.416371 -0.249540 -1.745591 5.267083 -2.806033 13.187177 -0.004500 -0.767800 12.763700 -89.964731 9.502517 25.495194 16.922376 -24.598949 -4.601447 -0.134468 -1.388544 -32.715399 -7.125000 0.000000 0.000000 85.659536 -6.122235 21.277825 -13.331967 23.538406 -2.867214 0.371897 -0.368001 5.965760 7.125000 0.000000 0.000000 
-4.450780 17.465145 -2.018397 -16.602005 77.803273 -11.138219 -16.939405 -21.079314 -3.819273 -1.568379 7.742229 20.972852 -1.220194 15.102131 -16.851067 2.196900 -9.264700 -26.626800 29.291344 0.278159 3.884676 2.798013 -0.056871 3.789279 0.469324 -17.315796 -15.728921 -1.269700 -7.141900 20.136500 1.591571 0.150280 -3.847888 -0.446091 -0.219959 -1.822037 5.271110 -2.866114 13.178330 -0.000500 -0.796800 12.739900 -89.926920 9.305589 26.632211 17.845526 -25.747935 -5.004569 -0.095830 -1.371362 -33.756839 -7.125000 0.000000 0.000000 85.673340 -6.088100 22.785548 -14.158010 24.695652 -3.198147 0.378080 -0.365226 4.727145 7.125000 0.000000 0.000000 
-4.444978 17.468882 -2.022921 -16.726896 77.849112 -11.263721 -16.921788 -20.838243 -3.905739 -1.557221 7.736345 20.964357 -1.192881 14.867253 -16.639074 2.247700 -9.364000 -26.940600 29.291474 0.219596 3.891161 2.799487 -0.056642 3.791742 0.481853 -17.398719 -15.666790 -1.218800 -7.002500 19.722900 1.584514 0.184803 -3.831934 -0.428096 -0.202810 -1.760287 5.293355 -2.904920 13.162185 0.018400 -0.817500 12.720000 -89.931149 8.998337 27.605493 18.804189 -26.923218 -5.444817 -0.067892 -1.357897 -34.672183 -7.125000 0.000000 0.000000 85.554332 -5.975434 24.586463 -15.079047 25.950328 -3.583210 0.388970 -0.357951 3.290107 7.125000 0.000000 0.000000 
-4.438586 17.470554 -2.027739 -16.790270 77.901685 -11.348087 -16.911299 -20.496627 -4.030596 -1.538485 7.738217 20.981330 -1.148779 14.525687 -16.420254 2.286400 -9.438800 -27.177800 29.254708 0.142669 3.925933 2.797425 -0.053341 3.796600 0.478413 -17.377148 -15.708015 -1.243900 -7.071700 19.927900 1.567720 0.185916 -3.843904 -0.442585 -0.202868 -1.798697 5.353674 -2.974995 13.238535 0.059700 -0.839200 12.753800 -89.945185 8.764295 28.383057 19.801500 -28.110299 -5.918488 -0.049372 -1.337534 -35.311348 -7.125000 0.000000 0.000000 85.507372 -5.890483 26.098359 -15.975983 27.142543 -3.974930 0.396648 -0.354955 2.302808 7.125000 0.000000 0.000000 
-4.432490 17.469669 -2.034622 -16.923686 78.015037 -11.537071 -16.931003 -20.222381 -4.125314 -1.516225 7.751244 21.029328 -1.107673 14.206689 -16.206802 2.334300 -9.530200 -27.468500 29.199071 -0.012815 3.981889 2.792012 -0.048662 3.806489 0.471637 -17.321483 -15.727226 -1.235600 -7.049100 19.860900 1.554994 0.153931 -3.857294 -0.458650 -0.219390 -1.857035 5.393902 -3.017074 13.324550 0.094800 -0.851700 12.799900 -90.031745 8.464103 28.972769 20.771644 -29.233171 -6.397991 -0.039008 -1.317471 -35.531535 -7.125000 0.000000 0.000000 85.456545 -5.786329 27.475895 -16.839353 28.261049 -4.365212 0.402461 -0.359011 1.545339 7.125000 0.000000 0.000000 
-4.426589 17.468489 -2.039736 -17.326425 78.107132 -11.973164 -16.876865 -19.991215 -4.244234 -1.489837 7.777810 21.112443 -1.066686 13.898253 -16.071068 2.359700 -9.578300 -27.621600 29.210726 -0.154066 4.019889 2.788875 -0.047386 3.813794 0.463562 -17.267736 -15.760118 -1.223000 -7.014400 19.758000 1.541099 0.175615 -3.864238 -0.491772 -0.209150 -1.878271 5.418467 -3.095487 13.408748 0.121800 -0.884400 12.849800 -90.100679 8.107025 29.562704 21.724023 -30.307030 -6.887595 -0.032585 -1.299376 -35.529315 -7.125000 0.000000 0.000000 85.396349 -5.704789 28.806404 -17.704364 29.355636 -4.769869 0.409239 -0.364936 0.805493 7.125000 0.000000 0.000000 
-4.420886 17.467899 -2.043964 -17.666739 78.152766 -12.332844 -16.812585 -19.736973 -4.390994 -1.459352 7.816454 21.226759 -1.020301 13.570245 -15.992336 2.367700 -9.593200 -27.669300 29.239106 -0.241188 4.051250 2.789842 -0.046609 3.817725 0.465780 -17.292564 -15.773994 -1.195800 -6.938600 19.533500 1.530923 0.200425 -3.864900 -0.476532 -0.198100 -1.860815 5.520560 -3.206824 13.548146 0.200400 -0.922100 12.937000 -90.116401 7.828748 30.221656 22.790449 -31.479919 -7.456140 -0.024214 -1.278181 -35.587342 -7.125000 0.000000 0.000000 85.288244 -5.576132 30.171270 -18.548273 30.395470 -5.178241 0.414981 -0.368353 0.123535 7.125000 0.000000 0.000000 
-4.414888 17.466424 -2.050454 -17.853372 78.226737 -12.562437 -16.820216 -19.562004 -4.486699 -1.430133 7.856817 21.345040 -0.979294 13.280488 -15.896740 2.365800 -9.589700 -27.658100 29.221095 -0.354774 4.095670 2.790941 -0.043425 3.823852 0.478257 -17.380188 -15.740924 -1.143200 -6.789800 19.094000 1.532216 0.147796 -3.864490 -0.413703 -0.225190 -1.852588 5.657618 -3.213836 13.638533 0.309100 -0.914700 12.985500 -90.168214 7.589509 30.728314 23.896226 -32.659024 -8.065755 -0.016805 -1.253402 -35.544343 -7.125000 0.000000 0.000000 85.122420 -5.360354 31.544976 -19.350474 31.356342 -5.578100 0.415616 -0.373046 -0.257714 7.125000 0.000000 0.000000 
